<svg width="100" height="100" viewBox="0 0 100 100" fill="none" xmlns="http://www.w3.org/2000/svg">
<path fill-rule="evenodd" clip-rule="evenodd" d="M86.8653 7.82779C81.9836 2.94625 74.069 2.94623 69.1873 7.82779L10.1975 66.8179C8.45251 68.5629 7.26305 70.7854 6.77909 73.205L4.33296 85.4358C3.16676 91.2666 8.30776 96.4079 14.1388 95.2416L26.3693 92.7954C28.7892 92.3116 31.0117 91.122 32.7567 89.377L91.7465 30.387C96.6282 25.5055 96.6282 17.5909 91.7465 12.7093L86.8653 7.82779ZM75.0798 13.7203C76.7073 12.0932 79.3453 12.0932 80.9728 13.7203L85.854 18.6019C87.4815 20.2291 87.4815 22.8672 85.854 24.4945L74.7223 35.6261L63.9486 24.852L75.0798 13.7203ZM58.0557 30.7445L16.09 72.7104C15.5084 73.292 15.1119 74.0329 14.9506 74.8395L12.5045 87.07L24.735 84.6237C25.5417 84.4625 26.2825 84.0662 26.8642 83.4845L68.8298 41.5186L58.0557 30.7445Z" fill="black"/>
</svg>
