<svg width="100" height="100" viewBox="0 0 100 100" fill="none" xmlns="http://www.w3.org/2000/svg">
<path fill-rule="evenodd" clip-rule="evenodd" d="M81.25 25H18.75C17.025 25 15.625 23.6031 15.625 21.875C15.625 20.15 17.025 18.75 18.75 18.75H81.25C82.975 18.75 84.375 20.15 84.375 21.875C84.375 23.6031 82.975 25 81.25 25ZM78.125 87.5C78.125 90.95 75.325 93.75 71.875 93.75H28.125C24.675 93.75 21.875 90.95 21.875 87.5V31.25H78.125V87.5ZM40.625 9.375C40.625 7.64688 42.025 6.25 43.75 6.25H56.25C57.975 6.25 59.375 7.64688 59.375 9.375V12.5H40.625V9.375ZM84.375 12.5H65.625V6.25C65.625 2.8 62.825 0 59.375 0H40.625C37.175 0 34.375 2.8 34.375 6.25V12.5H15.625C12.175 12.5 9.375 15.3 9.375 18.75V25C9.375 28.45 12.175 31.25 15.625 31.25V87.5C15.625 94.4031 21.2219 100 28.125 100H71.875C78.7781 100 84.375 94.4031 84.375 87.5V31.25C87.825 31.25 90.625 28.45 90.625 25V18.75C90.625 15.3 87.825 12.5 84.375 12.5ZM50 87.5C51.725 87.5 53.125 86.1031 53.125 84.375V46.875C53.125 45.15 51.725 43.75 50 43.75C48.275 43.75 46.875 45.15 46.875 46.875V84.375C46.875 86.1031 48.275 87.5 50 87.5ZM34.375 87.5C36.1 87.5 37.5 86.1031 37.5 84.375V46.875C37.5 45.15 36.1 43.75 34.375 43.75C32.65 43.75 31.25 45.15 31.25 46.875V84.375C31.25 86.1031 32.65 87.5 34.375 87.5ZM65.625 87.5C67.35 87.5 68.75 86.1031 68.75 84.375V46.875C68.75 45.15 67.35 43.75 65.625 43.75C63.9 43.75 62.5 45.15 62.5 46.875V84.375C62.5 86.1031 63.9 87.5 65.625 87.5Z" fill="black"/>
</svg>
